<?xml version="1.0" encoding="UTF-8" standalone="no"?>
<!-- Created with Inkscape (http://www.inkscape.org/) -->

<svg
   xmlns:dc="http://purl.org/dc/elements/1.1/"
   xmlns:cc="http://creativecommons.org/ns#"
   xmlns:rdf="http://www.w3.org/1999/02/22-rdf-syntax-ns#"
   xmlns:svg="http://www.w3.org/2000/svg"
   xmlns="http://www.w3.org/2000/svg"
   xmlns:sodipodi="http://sodipodi.sourceforge.net/DTD/sodipodi-0.dtd"
   xmlns:inkscape="http://www.inkscape.org/namespaces/inkscape"
   width="160.10089mm"
   height="161.57237mm"
   viewBox="0 0 160.10089 161.57237"
   version="1.1"
   id="svg8"
   inkscape:version="0.92.2 (5c3e80d, 2017-08-06)"
   sodipodi:docname="01.svg">
  <defs
     id="defs2" />
  <sodipodi:namedview
     id="base"
     pagecolor="#ffffff"
     bordercolor="#666666"
     borderopacity="1.0"
     inkscape:pageopacity="0.0"
     inkscape:pageshadow="2"
     inkscape:zoom="0.86496992"
     inkscape:cx="365.9848"
     inkscape:cy="230.06876"
     inkscape:document-units="mm"
     inkscape:current-layer="layer1"
     showgrid="false"
     inkscape:window-width="1824"
     inkscape:window-height="1046"
     inkscape:window-x="-11"
     inkscape:window-y="-11"
     inkscape:window-maximized="1" />
  <metadata
     id="metadata5">
    <rdf:RDF>
      <cc:Work
         rdf:about="">
        <dc:format>image/svg+xml</dc:format>
        <dc:type
           rdf:resource="http://purl.org/dc/dcmitype/StillImage" />
        <dc:title></dc:title>
      </cc:Work>
    </rdf:RDF>
  </metadata>
  <g
     inkscape:label="Layer 1"
     inkscape:groupmode="layer"
     id="layer1"
     transform="translate(18.98458,-48.427629)">
    <g
       id="g853"
       transform="rotate(120,61.065861,129.21381)">
      <path
         id="path817"
         transform="scale(0.26458333)"
         d="M 179.32227,183.03516 C 122.16753,182.86813 62.17419,263.3208 104.11328,318.64844 l 128.64844,169.71875 -0.004,1.85937 0.70703,-0.93359 0.70704,0.93359 -0.004,-1.85937 128.64844,-169.71875 C 419.32381,244.10173 290.78119,123.94099 233.46484,216.82422 218.68797,192.87776 199.17602,183.09318 179.32227,183.03516 Z"
         style="fill:#ff0000;stroke:none;stroke-width:0.99999994px;stroke-linecap:butt;stroke-linejoin:miter;stroke-opacity:1"
         inkscape:connector-curvature="0" />
      <path
         inkscape:connector-curvature="0"
         style="fill:#ffff00;stroke:none;stroke-width:0.26458332px;stroke-linecap:butt;stroke-linejoin:miter;stroke-opacity:1"
         d="M 124.29177,76.253813 C 116.76894,63.135514 90.397731,60.032105 83.268375,76.961241 l -21.86954,51.930349 -0.426565,0.24509 0.307453,0.0385 -0.120384,0.28551 0.425532,-0.24687 55.907769,7.02559 c 24.55679,3.08597 35.08481,-42.264025 6.21945,-43.109581 3.53214,-6.553828 3.19287,-12.319134 0.57968,-16.876016 z"
         id="path822" />
      <path
         id="path824"
         d="m 138.617,156.71735 c 7.59936,-13.07411 -2.89861,-37.46395 -21.12435,-35.17358 l -55.907773,7.02559 -0.425537,-0.24687 0.120384,0.28551 -0.30745,0.0385 0.426561,0.24509 21.869545,51.93034 c 9.605867,22.80979 54.14412,9.25232 40.44372,-16.16859 7.44185,-0.21799 12.26512,-3.39446 14.9049,-7.93599 z"
         style="fill:#00ff00;stroke:none;stroke-width:0.26458332px;stroke-linecap:butt;stroke-linejoin:miter;stroke-opacity:1"
         inkscape:connector-curvature="0" />
      <path
         inkscape:connector-curvature="0"
         style="fill:#00ffff;stroke:none;stroke-width:0.26458332px;stroke-linecap:butt;stroke-linejoin:miter;stroke-opacity:1"
         d="m 76.468273,209.99959 c 15.122189,0.0442 30.995417,-21.24225 19.899029,-35.88103 l -34.03822,-44.90475 10e-4,-0.49195 -0.187071,0.24699 -0.18707,-0.24701 10e-4,0.49198 -34.038227,44.90473 c -14.95092,19.72384 19.059317,51.51634 34.224278,26.94101 3.909697,6.33582 9.072237,8.92466 14.325218,8.94002 z"
         id="path826" />
      <path
         id="path828"
         d="m -1.363542,181.60474 c 7.522816,13.1183 33.894037,16.22169 41.023398,-0.70745 l 21.869544,-51.93034 0.426541,-0.24511 -0.307435,-0.0385 0.120382,-0.28551 -0.425567,0.24685 -55.90775,-7.0256 c -24.556807,-3.08596 -35.084801,42.26402 -6.21946,43.1096 -3.532133,6.55381 -3.192864,12.31912 -0.579676,16.87601 z"
         style="fill:#0000ff;stroke:none;stroke-width:0.26458332px;stroke-linecap:butt;stroke-linejoin:miter;stroke-opacity:1"
         inkscape:connector-curvature="0" />
      <path
         inkscape:connector-curvature="0"
         style="fill:#ff00ff;stroke:none;stroke-width:0.26458332px;stroke-linecap:butt;stroke-linejoin:miter;stroke-opacity:1"
         d="m -16.485407,100.74185 c -7.599373,13.0741 2.898623,37.46394 21.124369,35.17358 l 55.907766,-7.02559 0.425542,0.24684 -0.120376,-0.28549 0.30745,-0.0385 -0.426562,-0.24512 -21.869527,-51.93033 c -9.605883,-22.8098 -54.144115,-9.25232 -40.4437385,16.16859 -7.4418324,0.21798 -12.2651025,3.39445 -14.9048915,7.93599 z"
         id="path830" />
      <path
         id="path832"
         transform="scale(0.26458333)"
         d="m 95.585938,248.08984 c -8.687464,23.114 -7.980099,48.78135 8.527342,70.5586 l 123.7168,163.21289 -80.94531,-192.20899 c -9.79414,-23.25681 -29.20145,-36.49349 -51.298832,-41.5625 z"
         style="fill:#ff0000;stroke:none;stroke-width:0.99999994px;stroke-linecap:butt;stroke-linejoin:miter;stroke-opacity:1"
         inkscape:connector-curvature="0" />
    </g>
  </g>
</svg>
