<svg id="svg" version="1.1" xmlns="http://www.w3.org/2000/svg" style="display: block;" viewBox="0 0 454 340"><path d="M0 0 C149.82 0 299.64 0 454 0 C454 112.2 454 224.4 454 340 C304.18 340 154.36 340 0 340 C0 227.8 0 115.6 0 0 Z " transform="translate(0,0)" style="fill: #FEFEFE;"/><path d="M0 0 C2.04301131 -0.00269961 4.08602137 -0.00658592 6.12902832 -0.01159668 C10.39555177 -0.01746962 14.66173857 -0.00900006 18.92822266 0.00976562 C24.37180638 0.03255362 29.81460098 0.01941868 35.25815582 -0.00452423 C39.47232917 -0.01904193 43.68631826 -0.01434892 47.90049744 -0.00401306 C49.90657141 -0.00136226 51.91266261 -0.00455695 53.91871643 -0.01393127 C80.22993891 -0.1099289 80.22993891 -0.1099289 89.96875 9.53125 C96.2212215 17.38009721 99.42818219 24.55215088 99.37280273 34.53662109 C99.37966599 35.41076157 99.38652924 36.28490204 99.39360046 37.18553162 C99.41181582 40.05875152 99.40803807 42.93142256 99.40234375 45.8046875 C99.40690846 47.81336646 99.41221489 49.82204385 99.41822815 51.83071899 C99.42714923 56.03532261 99.42474796 60.2397362 99.41479492 64.44433594 C99.40331363 69.81646307 99.42350921 75.18793206 99.45271206 80.55997276 C99.47111305 84.70714443 99.4707737 88.85415957 99.46507454 93.00136185 C99.46492176 94.98118639 99.47092965 96.96102185 99.48336601 98.94080734 C99.49834594 101.71664706 99.48754747 104.49128611 99.47045898 107.26708984 C99.48496094 108.47843346 99.48496094 108.47843346 99.49975586 109.71424866 C99.38754032 118.47711608 95.54474212 126.75161426 89.4765625 133.08984375 C82.24629335 139.77034589 74.75780345 142.13557157 65.04956055 142.08056641 C64.10191833 142.09078827 63.15427612 142.10101013 62.17791748 142.11154175 C59.07017176 142.13915902 55.96332199 142.13743356 52.85546875 142.1328125 C50.67747168 142.14059673 48.49947762 142.14926818 46.32148743 142.15878296 C41.7647618 142.17367029 37.20834617 142.17315259 32.65161133 142.16259766 C26.83791446 142.15102023 21.02549444 142.18485667 15.21200848 142.231287 C10.71554761 142.26088196 6.21938991 142.26248882 1.72284889 142.25626755 C-0.41918654 142.2572882 -2.56124024 142.26765449 -4.70318031 142.28789139 C-28.29398107 142.48342324 -28.29398107 142.48342324 -38.23384094 133.55215454 C-42.51634496 129.18388774 -44.85219339 124.17805261 -47.03125 118.53125 C-47.36125 117.87125 -47.69125 117.21125 -48.03125 116.53125 C-48.15587298 113.72699021 -48.22015813 110.94663719 -48.23999023 108.14111328 C-48.24977402 107.27252182 -48.2595578 106.40393036 -48.26963806 105.50901794 C-48.29964074 102.62321506 -48.32100032 99.73745909 -48.33984375 96.8515625 C-48.34641558 95.86441128 -48.3529874 94.87726006 -48.35975838 93.86019516 C-48.39238582 88.62686344 -48.41681891 83.39355225 -48.4362793 78.16015625 C-48.45403489 73.84181711 -48.48875766 69.52413806 -48.53881836 65.20605469 C-48.59928607 59.98409902 -48.629793 54.76275158 -48.63945198 49.54046249 C-48.64796942 47.55747279 -48.66669491 45.57449768 -48.6961956 43.59170914 C-48.88050242 30.4900605 -48.33816511 20.9149555 -39.46875 10.53125 C-38.664375 9.87125 -37.86 9.21125 -37.03125 8.53125 C-36.33 7.850625 -35.62875 7.17 -34.90625 6.46875 C-24.13903685 -0.78741539 -12.45843028 -0.05821845 0 0 Z " transform="translate(292.03125,179.46875)" style="fill: #FE9F40;"/><path d="M0 0 C6.93568288 2.04290542 13.8977211 3.9229017 20.90356445 5.70874023 C28.87375531 7.76401153 36.81472159 9.90181607 44.71606445 12.20874023 C45.64878174 12.46913086 46.58149902 12.72952148 47.54248047 12.99780273 C58.81332415 16.36058908 67.23541312 22.72913296 73.21606445 32.89624023 C76.30752075 40.62488098 75.88119391 47.31547672 73.5559082 55.16577148 C73.19198975 56.40786377 72.82807129 57.64995605 72.453125 58.9296875 C71.90265503 60.8003186 71.90265503 60.8003186 71.34106445 62.70874023 C70.71831413 64.90061012 70.0984193 67.09329375 69.48168945 69.28686523 C65.2670031 84.18318188 60.90622368 99.02448471 56.25512695 113.79077148 C55.39381506 116.54034408 54.55350357 119.29557432 53.71606445 122.05249023 C49.79089463 134.73245155 45.23890182 142.89293779 33.5793457 149.74389648 C16.65945313 157.63495268 -6.10084665 147.29211971 -22.45483398 141.96020508 C-28.63250701 139.96703133 -34.86896179 138.30804493 -41.15893555 136.70874023 C-77.79496338 127.30641129 -77.79496338 127.30641129 -86.65893555 114.70874023 C-91.55329695 106.27018609 -91.94526969 97.3671844 -89.5300293 88.02514648 C-88.26681215 83.47350656 -86.89647098 78.9558163 -85.5012207 74.44311523 C-84.70545145 71.85974838 -83.93302581 69.27088278 -83.1706543 66.67749023 C-80.32076566 57.00784787 -77.30529065 47.39727321 -74.1965332 37.80786133 C-72.53802607 32.64489646 -71.04301627 27.4748435 -69.69702148 22.22216797 C-66.77339519 10.89965266 -62.4907178 2.48564729 -52.65893555 -4.29125977 C-36.04044495 -13.7795196 -16.79590599 -4.97004141 0 0 Z " transform="translate(227.658935546875,17.291259765625)" style="fill: #F26666;"/><path d="M0 0 C8.49261659 7.45693164 11.76402871 16.17579216 13.33203125 27.16796875 C13.57323257 28.78735495 13.81444391 30.40673965 14.05566406 32.02612305 C14.24086609 33.29037613 14.24086609 33.29037613 14.42980957 34.58016968 C16.62673059 49.54813945 19.06516326 64.43538077 21.921875 79.29296875 C27.20283909 106.87477131 27.20283909 106.87477131 20.74609375 118.19921875 C14.3508978 127.34765982 5.79212463 131.97926565 -5.0390625 134.0625 C-6.89947165 134.38421486 -8.76156719 134.69628826 -10.625 135 C-11.62700439 135.16878662 -12.62900879 135.33757324 -13.66137695 135.51147461 C-22.29446487 136.94074005 -30.95414214 138.13757385 -39.62890625 139.28125 C-53.36160787 141.09730936 -67.03133616 143.31039596 -80.6875 145.625 C-89.98587746 146.67764651 -97.72027164 145.74545875 -106.125 141.375 C-118.85748321 130.8568617 -121.22605161 119.58397274 -123.19140625 103.8671875 C-124.18830087 96.20044694 -125.62463941 88.60580242 -127 81 C-127.94604411 75.75956708 -128.88011765 70.51738626 -129.78979492 65.27050781 C-130.0550931 63.75591417 -130.32561051 62.24222554 -130.60131836 60.72949219 C-132.12287602 52.3586729 -133.24995469 44.18684658 -133.27734375 35.6640625 C-133.28033981 34.96152344 -133.28333588 34.25898438 -133.28642273 33.53515625 C-133.20825417 28.12362685 -132.29002982 24.27703877 -129 20 C-128.5875 19.401875 -128.175 18.80375 -127.75 18.1875 C-121.0351889 9.33615809 -112.52366733 6.6916009 -102 5 C-100.22204206 4.68179832 -98.44468148 4.36023872 -96.66796875 4.03515625 C-85.98340222 2.12944361 -75.30253661 0.40160551 -64.53393555 -0.96069336 C-59.46500572 -1.61254446 -54.48908606 -2.4656215 -49.48461914 -3.50048828 C-13.81123837 -10.67232056 -13.81123837 -10.67232056 0 0 Z " transform="translate(201,184)" style="fill: #73E7E6;"/><path d="M0 0 C4.58092888 0.07243499 8.62867058 1.37699534 12.93359375 2.8515625 C14.13000488 3.25870483 14.13000488 3.25870483 15.35058594 3.67407227 C21.00757458 5.68703483 25.74060644 7.88444949 29.99609375 12.2265625 C30.55425781 12.79503906 31.11242187 13.36351562 31.6875 13.94921875 C37.55049135 20.3773177 40.38880394 26.9894843 40.28344727 35.7565918 C39.92222778 38.86148347 39.09874932 41.68629134 38.2109375 44.68359375 C37.66505981 46.54673218 37.66505981 46.54673218 37.1081543 48.44750977 C36.74117432 49.69459717 36.37419434 50.94168457 35.99609375 52.2265625 C35.37334342 54.41843238 34.7534486 56.61111602 34.13671875 58.8046875 C29.9220324 73.70100415 25.56125298 88.54230697 20.91015625 103.30859375 C20.04884435 106.05816634 19.20853287 108.81339659 18.37109375 111.5703125 C14.44592392 124.25027382 9.89393112 132.41076006 -1.765625 139.26171875 C-15.61092872 145.71885606 -32.39315919 139.22836693 -46.00390625 135.2265625 C-46.00390625 134.2365625 -46.00390625 133.2465625 -46.00390625 132.2265625 C-44.73546875 131.89785156 -44.73546875 131.89785156 -43.44140625 131.5625 C-34.24696626 128.99223609 -26.5895178 125.83983222 -21.1484375 117.578125 C-18.63367634 112.41127784 -17.21741687 106.78800081 -15.62011719 101.28466797 C-14.71294199 98.25476032 -13.66652434 95.27645315 -12.62890625 92.2890625 C-9.98684129 84.44595142 -7.80247259 76.48962035 -5.59912109 68.51391602 C-3.90285257 62.38943034 -2.15901553 56.28947891 -0.25390625 50.2265625 C0.13667969 48.97617188 0.52726562 47.72578125 0.9296875 46.4375 C1.55058659 44.56797965 2.21151672 42.70920131 2.96875 40.890625 C6.39128226 32.58103504 6.63697593 21.57896391 4.01171875 13.015625 C1.89981602 8.67449162 -0.76920171 4.82067866 -4.00390625 1.2265625 C-3.00390625 0.2265625 -3.00390625 0.2265625 0 0 Z " transform="translate(263.00390625,27.7734375)" style="fill: #DD5B5B;"/><path d="M0 0 C8.49261659 7.45693164 11.76402871 16.17579216 13.33203125 27.16796875 C13.57323257 28.78735495 13.81444391 30.40673965 14.05566406 32.02612305 C14.17913208 32.86895844 14.3026001 33.71179382 14.42980957 34.58016968 C16.62673059 49.54813945 19.06516326 64.43538077 21.921875 79.29296875 C27.20283909 106.87477131 27.20283909 106.87477131 20.74609375 118.19921875 C14.46558112 127.18360331 5.98263919 132.02478982 -4.7265625 133.94921875 C-6.35802103 134.20413415 -7.99089138 134.45016518 -9.625 134.6875 C-10.44484375 134.81705078 -11.2646875 134.94660156 -12.109375 135.08007812 C-16.44746965 135.73916164 -20.5979746 136.14958339 -25 136 C-22.86026981 133.86026981 -20.72196818 131.74282057 -18.5 129.6875 C-11.87575194 122.56643334 -9.63200615 115.20132005 -9.78662109 105.64746094 C-10.15266156 99.39043061 -11.20722351 93.28794569 -12.3125 87.125 C-12.63250977 85.25521484 -12.63250977 85.25521484 -12.95898438 83.34765625 C-14.0455737 77.07463012 -15.23046493 70.83211701 -16.51953125 64.59765625 C-17.58875568 59.32542777 -18.47408884 54.06422074 -19.2109375 48.73828125 C-19.30777328 48.04595398 -19.40460907 47.35362671 -19.50437927 46.64031982 C-19.89638861 43.82154999 -20.28553132 41.00272086 -20.65136719 38.18041992 C-22.16069937 26.64197258 -23.99395321 14.52477816 -33.11328125 6.39453125 C-38.28309467 2.57336481 -43.8108656 0.5472836 -50 -1 C-50 -1.66 -50 -2.32 -50 -3 C-13.62740123 -10.53026459 -13.62740123 -10.53026459 0 0 Z " transform="translate(201,184)" style="fill: #65D1CB;"/><path d="M0 0 C4.23170951 -0.0999677 8.4627671 -0.17197673 12.6953125 -0.21972656 C14.13065587 -0.23966189 15.56591997 -0.26682074 17.00097656 -0.30175781 C27.04648156 -0.53993576 35.00134922 0.31900975 43.75 5.6875 C51.40150377 13.55154554 55.46445945 22.11452614 55.40405273 33.00537109 C55.41091599 33.87951157 55.41777924 34.75365204 55.42485046 35.65428162 C55.44306582 38.52750152 55.43928807 41.40017256 55.43359375 44.2734375 C55.43815846 46.28211646 55.44346489 48.29079385 55.44947815 50.29946899 C55.45839923 54.50407261 55.45599796 58.7084862 55.44604492 62.91308594 C55.43456363 68.28521307 55.45475921 73.65668206 55.48396206 79.02872276 C55.50236305 83.17589443 55.5020237 87.32290957 55.49632454 91.47011185 C55.49617176 93.44993639 55.50217965 95.42977185 55.51461601 97.40955734 C55.52959594 100.18539706 55.51879747 102.96003611 55.50170898 105.73583984 C55.51137695 106.54340225 55.52104492 107.35096466 55.53100586 108.18299866 C55.41879032 116.94586608 51.57599212 125.22036426 45.5078125 131.55859375 C36.12620768 140.22685074 26.60571193 140.53476222 14.4375 140.25 C12.93687287 140.2298987 11.43621966 140.21165436 9.93554688 140.1953125 C6.28981517 140.15161687 2.64507801 140.08279202 -1 140 C0.66227594 138.89181604 2.33623673 137.79889841 4.05078125 136.7734375 C12.4119994 131.60363422 17.27076429 125.54691789 20 116 C20.40181625 112.89731076 20.42110516 109.83906489 20.40405273 106.71337891 C20.41091599 105.82119156 20.41777924 104.92900421 20.42485046 104.00978088 C20.44304217 101.08187615 20.43929149 98.15451123 20.43359375 95.2265625 C20.43815955 93.17686796 20.4434663 91.12717494 20.44947815 89.07748413 C20.45839456 84.78889738 20.45600323 80.50049698 20.44604492 76.21191406 C20.43456347 70.73566568 20.45476194 65.26006292 20.48396206 59.78389931 C20.50237303 55.55262209 20.50202173 51.32149814 20.49632454 47.09019089 C20.49617189 45.07211782 20.5021692 43.05403399 20.51461601 41.0359993 C20.72045965 24.43728379 20.72045965 24.43728379 13.75 9.6875 C10.45403132 6.4664397 6.96766147 4.29095097 3 2 C2.01 1.34 1.02 0.68 0 0 Z " transform="translate(336,181)" style="fill: #F4923A;"/><path d="M0 0 C3.68768873 2.42199895 5.47045286 5.09104608 6.84375 9.2109375 C7.52292172 15.47935844 6.98391952 20.08891944 3.71875 25.51953125 C2.61401064 27.33764323 2.61401064 27.33764323 2.84375 30.2109375 C4.13340176 31.58656604 5.47064293 32.91860143 6.84375 34.2109375 C10.10979083 39.10999875 9.39193403 44.48545987 8.84375 50.2109375 C7.29040663 55.567873 4.62987658 59.24809723 -0.15625 62.2109375 C-7.39107408 65.08604822 -16.34486841 65.95137748 -23.76953125 63.265625 C-28.31764243 60.5418974 -31.76998118 56.98347513 -34.15625 52.2109375 C-34.34375 48.7109375 -34.34375 48.7109375 -34.15625 45.2109375 C-32.15625 43.2109375 -32.15625 43.2109375 -29.21875 42.9609375 C-26.15625 43.2109375 -26.15625 43.2109375 -23.15625 45.2109375 C-22.45243843 47.19817018 -21.7850689 49.19871703 -21.15625 51.2109375 C-18.46523766 53.90194984 -16.96549054 53.50981299 -13.21875 53.5234375 C-12.15785156 53.54019531 -11.09695313 53.55695313 -10.00390625 53.57421875 C-7.15716197 53.45400375 -7.15716197 53.45400375 -5.33984375 51.81640625 C-2.45690597 47.90588669 -2.57029229 43.91534081 -3.15625 39.2109375 C-4.55310006 36.5639503 -4.55310006 36.5639503 -7.15625 35.2109375 C-9.48442964 34.84333019 -11.8180885 34.50852169 -14.15625 34.2109375 C-16.15625 32.9609375 -16.15625 32.9609375 -17.15625 31.2109375 C-16.91171876 27.86901058 -16.55081443 26.60550193 -14.15625 24.2109375 C-12.09810004 23.60485653 -10.03577543 23.19919581 -7.93359375 22.7734375 C-7.34707031 22.5878125 -6.76054687 22.4021875 -6.15625 22.2109375 C-4.99281773 19.88407297 -4.95729012 18.36372337 -4.90625 15.7734375 C-4.88046875 14.99097656 -4.8546875 14.20851562 -4.828125 13.40234375 C-4.99983681 11.16490366 -4.99983681 11.16490366 -6.359375 9.45703125 C-9.38379756 7.35965995 -12.27451365 7.6840631 -15.84765625 7.79296875 C-18.37622623 8.0049893 -18.37622623 8.0049893 -20.09375 10.3984375 C-20.444375 11.3265625 -20.795 12.2546875 -21.15625 13.2109375 C-22.46875 16.0234375 -22.46875 16.0234375 -24.15625 18.2109375 C-27.31614415 18.59786331 -29.29504744 18.64153878 -32.15625 17.2109375 C-32.61509065 12.05152935 -32.85231963 8.385555 -30.15625 3.8359375 C-21.28172307 -3.92927357 -10.74533482 -5.48946453 0 0 Z " transform="translate(330.15625,219.7890625)" style="fill: #FFFBF7;"/><path d="M0 0 C4.18888911 2.76085873 6.32742664 5.24637045 8 10 C8.98186454 16.33356578 8.14338628 21.19654832 4.7578125 26.6328125 C-0.12041704 33.20216161 -5.61008842 38.914152 -12 44 C-14.38226452 47.31815415 -15.2826278 50.02124121 -16 54 C-15.37544922 53.90912109 -14.75089844 53.81824219 -14.10742188 53.72460938 C-11.23908516 53.31060075 -8.36958715 52.90524704 -5.5 52.5 C-4.51773438 52.35691406 -3.53546875 52.21382813 -2.5234375 52.06640625 C3.04789162 51.28642017 8.37493985 50.839284 14 51 C14.625 54.375 14.625 54.375 15 58 C8.32091208 64.67908792 -10.93303268 65.13924004 -20.0625 65.3125 C-24 65 -24 65 -26 63 C-26.625 60.5 -26.625 60.5 -27 57 C-27.11214844 56.26394531 -27.22429687 55.52789062 -27.33984375 54.76953125 C-27.96039336 47.92171186 -25.76688019 44.16504231 -21.56640625 38.875 C-18.23558231 35.14366603 -14.75859317 31.58534991 -11.12597656 28.14697266 C-7.29135894 24.48962752 -4.34179844 21.34376073 -3.5625 16 C-4.12577956 12.13751158 -5.05746665 10.56528548 -8 8 C-11.79043659 7.44866377 -14.26918844 7.74580467 -17.875 9 C-20.30646419 11.28843688 -20.32449625 11.87831605 -20.625 15.0625 C-20.74875 16.361875 -20.8725 17.66125 -21 19 C-24.45029042 21.30019361 -25.94554358 21.43132515 -30 21 C-32.7017494 16.9473759 -32.52917527 13.75417786 -32 9 C-29.79911673 3.62006312 -25.42981004 0.15968207 -20.25 -2.3125 C-12.85517386 -3.87679014 -6.65805173 -3.65540095 0 0 Z " transform="translate(154,224)" style="fill: #FAFEFE;"/><path d="M0 0 C0.66 0.66 1.32 1.32 2 2 C1.57860135 7.19990035 -0.15817233 12.16122272 -1.6875 17.125 C-2.23053733 18.91143749 -2.77350404 20.69789644 -3.31640625 22.484375 C-3.59500488 23.39638672 -3.87360352 24.30839844 -4.16064453 25.24804688 C-5.49413166 29.62008494 -6.81037127 33.99726103 -8.125 38.375 C-8.37362793 39.20056396 -8.62225586 40.02612793 -8.87841797 40.87670898 C-10.74048427 47.07844142 -12.51611528 53.30102542 -14.23828125 59.54296875 C-15 62 -15 62 -16 63 C-21.73611111 63.27314815 -21.73611111 63.27314815 -24 63 C-24.66 62.34 -25.32 61.68 -26 61 C-25.59146019 55.02117704 -23.85120188 49.31622544 -22.25 43.5625 C-21.98558105 42.6019873 -21.72116211 41.64147461 -21.44873047 40.65185547 C-19.14941375 32.37514091 -16.64589862 24.17184618 -14 16 C-15.01429155 14.81420987 -15.01429155 14.81420987 -17 14.5 C-19 14 -19 14 -20 13 C-20.375 10.6875 -20.375 10.6875 -20 8 C-14.68294904 2.5167912 -7.65833994 -0.91900079 0 0 Z " transform="translate(236,59)" style="fill: #FEF9F9;"/></svg>